<?xml version="1.0" encoding="UTF-8"?>
<svg width="1200" height="800" xmlns="http://www.w3.org/2000/svg">
    <!-- Background -->
    <rect width="1200" height="800" fill="#ffffff" stroke="#e0e0e0" stroke-width="2" rx="4"/>
    
    <!-- Title -->
    <rect x="20" y="10" width="1160" height="35" fill="#1e40af" rx="4"/>
    <text x="600" y="32" text-anchor="middle" font-size="14" font-weight="bold" fill="white">
        LinkedIn Distributed Task Queue: 10M tasks/sec - p95 regional &lt; 2s - p99 global &lt; 10s - 99.999% delivery
    </text>
    
    <!-- Producers Section -->
    <rect x="30" y="60" width="160" height="120" fill="#fdf4ff" stroke="#c084fc" stroke-width="2" rx="6"/>
    <text x="50" y="80" font-size="12" font-weight="bold" fill="#7e22ce">Producers</text>
    <text x="50" y="95" font-size="10" fill="#7e22ce">Multi-tenant services</text>
    
    <!-- Individual producer services -->
    <rect x="40" y="105" width="140" height="18" fill="#a855f7" stroke="#7e22ce" stroke-width="1" rx="3"/>
    <text x="110" y="116" text-anchor="middle" font-size="8" fill="white">Image Upload Service</text>
    
    <rect x="40" y="125" width="140" height="18" fill="#a855f7" stroke="#7e22ce" stroke-width="1" rx="3"/>
    <text x="110" y="136" text-anchor="middle" font-size="8" fill="white">Email Service</text>
    
    <rect x="40" y="145" width="140" height="18" fill="#a855f7" stroke="#7e22ce" stroke-width="1" rx="3"/>
    <text x="110" y="156" text-anchor="middle" font-size="8" fill="white">Data Enrichment</text>
    
    <!-- Enqueue Gateway -->
    <rect x="230" y="60" width="200" height="120" fill="#e0f2fe" stroke="#0891b2" stroke-width="2" rx="6"/>
    <text x="250" y="80" font-size="12" font-weight="bold" fill="#0c4a6e">Enqueue gateway</text>
    <text x="250" y="95" font-size="9" fill="#0c4a6e">Auth - schema validate - per-tenant token bucket</text>
    <text x="250" y="110" font-size="9" fill="#0c4a6e">Idempotency key dedupe (Spanner CAS)</text>
    
    <!-- Gateway components -->
    <rect x="240" y="120" width="80" height="25" fill="#06b6d4" stroke="#0891b2" stroke-width="1" rx="3"/>
    <text x="280" y="135" text-anchor="middle" font-size="8" fill="white">Auth Layer</text>
    
    <rect x="330" y="120" width="85" height="25" fill="#06b6d4" stroke="#0891b2" stroke-width="1" rx="3"/>
    <text x="372" y="135" text-anchor="middle" font-size="8" fill="white">Rate Limiter</text>
    
    <rect x="240" y="150" width="175" height="25" fill="#0891b2" stroke="#0e7490" stroke-width="1" rx="3"/>
    <text x="327" y="165" text-anchor="middle" font-size="8" fill="white">Idempotency: hash(input) to Spanner</text>
    
    <!-- Kafka Section -->
    <rect x="470" y="60" width="280" height="120" fill="#fff7ed" stroke="#ea580c" stroke-width="2" rx="6"/>
    <text x="490" y="80" font-size="12" font-weight="bold" fill="#c2410c">Kafka - partitioned by (tenant, priority)</text>
    <text x="490" y="95" font-size="9" fill="#c2410c">Topics: tasks.p0 (critical) - tasks.p1 (standard) - tasks.p2 (batch)</text>
    <text x="490" y="110" font-size="9" fill="#c2410c">MirrorMaker2 cross-region - 7-day retention - 3x replication</text>
    
    <!-- Success Path -->
    <rect x="30" y="430" width="400" height="80" fill="#ecfdf5" stroke="#10b981" stroke-width="2" rx="6"/>
    <text x="50" y="450" font-size="12" font-weight="bold" fill="#047857">Success path</text>
    <text x="50" y="465" font-size="9" fill="#059669">Commit result - update status</text>
    <text x="50" y="480" font-size="9" fill="#059669">Idempotent CAS on dedupe table</text>
    
    <!-- Dead Letter Queue -->
    <rect x="460" y="430" width="200" height="80" fill="#fef2f2" stroke="#dc2626" stroke-width="2" rx="6"/>
    <text x="480" y="450" font-size="12" font-weight="bold" fill="#991b1b">Dead letter queue</text>
    <text x="480" y="465" font-size="9" fill="#7f1d1d">Terminal failures - manual replay</text>
    <text x="480" y="480" font-size="9" fill="#7f1d1d">Alert on depth growth</text>
    
    <!-- Key Design Principles -->
    <rect x="30" y="690" width="1140" height="80" fill="#fffbeb" stroke="#f59e0b" stroke-width="1" rx="4"/>
    <text x="50" y="710" font-size="12" font-weight="bold" fill="#d97706">LinkedIn Task Queue Design Principles</text>
    <text x="50" y="730" font-size="10" fill="#ea580c">Three Core Questions: (a) Once accepted, is it durable? Kafka replication before ACK</text>
    <text x="50" y="745" font-size="10" fill="#ea580c">(b) Worker dies mid-task? Leases + heartbeats + CAS completion</text>
    <text x="50" y="760" font-size="10" fill="#ea580c">(c) Prevent duplicate effects? Idempotency key + dedupe table + CAS</text>
    
    <!-- Flow Arrows -->
    <defs>
        <marker id="arrowhead" markerWidth="8" markerHeight="6" refX="7" refY="3" orient="auto" fill="#374151">
            <polygon points="0 0, 8 3, 0 6"/>
        </marker>
    </defs>
    
    <!-- Producer to Gateway -->
    <line x1="190" y1="120" x2="230" y2="120" stroke="#374151" stroke-width="2" marker-end="url(#arrowhead)"/>
    <text x="210" y="115" text-anchor="middle" font-size="7" fill="#374151">enqueue</text>
    
    <!-- Gateway to Kafka -->
    <line x1="430" y1="120" x2="470" y2="120" stroke="#374151" stroke-width="2" marker-end="url(#arrowhead)"/>
    <text x="450" y="115" text-anchor="middle" font-size="7" fill="#374151">admit</text>
</svg>